<?xml version="1.0" encoding="iso-8859-1"?>
<!-- Generator: Adobe Illustrator 19.0.0, SVG Export Plug-In . SVG Version: 6.00 Build 0)  -->
<svg version="1.1" id="Layer_1" xmlns="http://www.w3.org/2000/svg" xmlns:xlink="http://www.w3.org/1999/xlink" x="0px" y="0px"
	 viewBox="0 0 512 512" style="enable-background:new 0 0 512 512;" xml:space="preserve">
<g transform="translate(1 1)">
	<path style="fill:#FFDD09;" d="M161.133,237.933c-42.667,0-76.8-34.133-76.8-76.8s34.133-76.8,76.8-76.8s76.8,34.133,76.8,76.8
		S203.8,237.933,161.133,237.933L161.133,237.933z M313.027,135.533c-14.507,0-27.307-9.387-33.28-23.04c0,0,0,0,0-0.853
		c-5.973-13.653-3.413-29.867,6.827-40.107l1.707-1.707l-35.84-35.84l-1.707,1.707c-10.24,10.24-26.453,12.8-40.107,6.827
		c0,0,0,0-0.853,0c-13.653-5.12-23.04-17.92-23.04-33.28V7.533h-51.2V9.24c0,14.507-9.387,27.307-23.04,33.28c0,0,0,0-0.853,0
		c-13.653,5.973-29.867,3.413-40.107-6.827L70.68,34.84L34.84,70.68l1.707,1.707c10.24,10.24,12.8,26.453,6.827,40.107
		c0,0,0,0,0,0.853C37.4,126.147,24.6,135.533,9.24,135.533H7.533v51.2H9.24c14.507,0,27.307,9.387,33.28,23.04c0,0,0,0,0,0.853
		c5.973,13.653,3.413,29.867-6.827,40.107l-1.707,1.707l35.84,35.84l1.707-1.707c10.24-10.24,26.453-12.8,40.107-6.827
		c0,0,0,0,0.853,0c13.653,5.973,23.04,18.773,23.04,33.28v1.707h51.2v-1.707c0-14.507,9.387-27.307,23.04-33.28c0,0,0,0,0.853,0
		c13.653-5.973,29.867-3.413,40.107,6.827l1.707,1.707l35.84-35.84l-1.707-1.707c-10.24-10.24-12.8-26.453-6.827-40.107
		c0,0,0,0,0-0.853c5.973-13.653,18.773-23.04,33.28-23.04h1.707v-51.2L313.027,135.533L313.027,135.533z"/>
	<path style="fill:#FD9808;" d="M313.027,135.533c-14.507,0-27.307-9.387-33.28-23.04c0,0,0,0,0-0.853
		c-5.973-13.653-3.413-29.867,6.827-40.107l1.707-1.707l-35.84-35.84l-1.707,1.707c-2.56,2.56-5.12,4.267-8.533,5.973l29.013,29.013
		l-1.707,1.707c-10.24,10.24-13.653,25.6-7.68,39.253l5.12,12.8c5.12,11.947,17.067,20.48,30.72,20.48v34.133
		c-13.653,0-25.6,7.68-30.72,20.48l-5.12,12.8c-5.12,13.653-2.56,29.013,7.68,39.253l1.707,1.707L242.2,280.6
		c3.413,1.707,5.973,3.413,8.533,5.973l1.707,1.707l35.84-35.84l-1.707-1.707c-10.24-10.24-12.8-26.453-6.827-40.107
		c0,0,0,0,0-0.853c5.973-13.653,18.773-23.04,33.28-23.04h1.707v-51.2L313.027,135.533L313.027,135.533z"/>
	<path style="fill:#FFFFFF;" d="M9.24,135.533c14.507,0,27.307-9.387,33.28-23.04c0,0,0,0,0-0.853
		c5.973-13.653,3.413-29.867-6.827-40.107L34.84,70.68l35.84-35.84l1.707,1.707c2.56,2.56,5.12,4.267,8.533,5.973L51.907,70.68
		l1.707,1.707c10.24,10.24,13.653,25.6,7.68,39.253l-5.12,12.8c-5.973,11.947-17.92,19.627-31.573,19.627V178.2
		c13.653,0,25.6,7.68,30.72,20.48l5.12,12.8c5.12,13.653,2.56,29.013-7.68,39.253l-1.707,1.707l29.013,28.16
		c-3.413,1.707-5.973,3.413-8.533,5.973l-1.707,1.707l-35.84-35.84l1.707-1.707c10.24-10.24,12.8-26.453,6.827-40.107
		c0,0,0,0,0-0.853c-5.12-13.653-17.92-23.04-33.28-23.04H7.533v-51.2H9.24z"/>
	<path style="fill:#FFDD09;" d="M383,434.2c-28.16,0-51.2-23.04-51.2-51.2c0-28.16,23.04-51.2,51.2-51.2
		c28.16,0,51.2,23.04,51.2,51.2C434.2,411.16,411.16,434.2,383,434.2L383,434.2z M470.04,418.84c2.56-5.973,8.533-10.24,15.36-10.24
		h17.067v-51.2h-17.92c-6.827,0-12.8-4.267-15.36-10.24l0,0c-2.56-5.973-0.853-12.8,3.413-17.92l12.8-12.8l-35.84-35.84l-12.8,12.8
		c-5.12,5.12-11.947,5.973-17.92,3.413l0,0c-5.973-2.56-10.24-8.533-10.24-15.36v-17.92h-51.2v17.92c0,6.827-4.267,12.8-10.24,15.36
		l0,0c-5.973,2.56-12.8,0.853-17.92-3.413l-12.8-12.8l-35.84,35.84l12.8,12.8c5.12,5.12,5.973,11.947,3.413,17.92l0,0
		c-2.56,5.973-8.533,10.24-15.36,10.24h-17.92v51.2h17.92c6.827,0,12.8,4.267,15.36,10.24l0,0c2.56,5.973,0.853,12.8-3.413,17.92
		l-12.8,12.8l35.84,35.84l12.8-12.8c5.12-5.12,11.947-5.973,17.92-3.413l0,0c5.973,2.56,10.24,8.533,10.24,15.36v17.92h51.2v-17.92
		c0-6.827,4.267-12.8,10.24-15.36l0,0c5.973-2.56,12.8-0.853,17.92,3.413l12.8,12.8l35.84-35.84l-12.8-12.8
		C468.333,432.493,467.48,424.813,470.04,418.84L470.04,418.84z"/>
	<path d="M408.6,511h-51.2c-5.12,0-8.533-3.413-8.533-8.533v-17.92c0-3.413-1.707-5.973-5.12-7.68
		c-3.413-1.707-6.827-0.853-8.533,1.707l-12.8,12.8c-3.413,3.413-8.533,3.413-11.947,0l-35.84-35.84
		c-3.413-3.413-3.413-8.533,0-11.947l12.8-12.8c2.56-2.56,2.56-5.973,1.707-8.533c-1.707-3.413-4.267-5.12-7.68-5.12h-17.92
		c-5.12,0-8.533-3.413-8.533-8.533v-51.2c0-5.12,3.413-8.533,8.533-8.533h17.92c3.413,0,5.973-1.707,7.68-5.12v-0.853
		c0.853-2.56,0-5.973-1.707-7.68l-12.8-12.8c-3.413-3.413-3.413-8.533,0-11.947l35.84-35.84c3.413-3.413,8.533-3.413,11.947,0
		l12.8,12.8c2.56,2.56,5.973,2.56,8.533,1.707c3.413-1.707,5.12-4.267,5.12-7.68v-17.92c0-5.12,3.413-8.533,8.533-8.533h51.2
		c5.12,0,8.533,3.413,8.533,8.533v17.92c0,3.413,1.707,5.973,5.12,7.68h0.853c2.56,0.853,5.973,0,7.68-1.707l12.8-12.8
		c3.413-3.413,8.533-3.413,11.947,0l35.84,35.84c3.413,3.413,3.413,8.533,0,11.947l-12.8,12.8c-2.56,2.56-2.56,5.973-1.707,8.533
		c1.707,3.413,4.267,5.12,7.68,5.12h17.92c5.12,0,8.533,3.413,8.533,8.533v51.2c0,5.12-3.413,8.533-8.533,8.533h-17.92
		c-3.413,0-5.973,1.707-7.68,5.12l0,0l0,0c-0.853,2.56-0.853,5.973,1.707,8.533l12.8,12.8c3.413,3.413,3.413,8.533,0,11.947
		l-35.84,35.84c-3.413,3.413-8.533,3.413-11.947,0l-12.8-12.8c-2.56-2.56-5.973-2.56-8.533-1.707c-3.413,1.707-5.12,4.267-5.12,7.68
		v17.92C417.133,507.587,413.72,511,408.6,511z M365.933,493.933h34.133v-9.387c0-10.24,5.973-19.627,15.36-23.04
		c9.387-4.267,20.48-1.707,27.307,5.12l5.973,5.973l23.893-23.893l-5.12-5.973c-6.827-6.827-9.387-17.92-5.12-27.307l7.68,3.413
		l-7.68-3.413c4.267-9.387,12.8-15.36,23.04-15.36h8.533v-34.133h-9.387c-10.24,0-19.627-5.973-23.04-15.36
		c-4.267-9.387-1.707-20.48,5.12-27.307l5.973-5.973L448.707,293.4l-5.973,5.12c-6.827,6.827-17.92,9.387-27.307,5.12
		s-15.36-12.8-15.36-23.04v-8.533h-34.133v9.387c0,10.24-5.973,19.627-15.36,23.04c-9.387,4.267-20.48,1.707-27.307-5.12
		l-5.973-5.973L293.4,317.293l6.827,6.827c6.827,6.827,9.387,17.92,5.12,27.307c-4.267,9.387-12.8,15.36-23.04,15.36h-10.24v34.133
		h9.387c10.24,0,19.627,5.973,23.04,15.36c4.267,9.387,1.707,20.48-5.12,27.307l-5.973,5.973l23.893,23.893l6.827-6.827
		c6.827-6.827,17.92-9.387,27.307-5.12c9.387,4.267,15.36,12.8,15.36,23.04v9.387H365.933z M383,442.733
		c-33.28,0-59.733-26.453-59.733-59.733S349.72,323.267,383,323.267S442.733,349.72,442.733,383S416.28,442.733,383,442.733z
		 M383,340.333c-23.893,0-42.667,18.773-42.667,42.667c0,23.893,18.773,42.667,42.667,42.667c23.893,0,42.667-18.773,42.667-42.667
		C425.667,359.107,406.893,340.333,383,340.333z"/>
	<path d="M186.733,323.267h-51.2c-5.12,0-8.533-3.413-8.533-8.533v-1.707c0-11.093-6.827-21.333-17.92-25.6
		c-11.093-5.12-23.893-2.56-31.573,5.12l-1.707,1.707c-3.413,3.413-8.533,3.413-11.947,0l-35.84-35.84
		c-3.413-3.413-3.413-8.533,0-11.947l1.707-1.707c7.68-7.68,10.24-19.627,5.12-30.72c-4.267-11.093-14.507-17.92-25.6-17.92H7.533
		c-5.12,0-8.533-3.413-8.533-8.533v-51.2c0-5.12,3.413-8.533,8.533-8.533H9.24c11.093,0,21.333-6.827,25.6-17.92
		C39.96,98.84,37.4,86.04,29.72,78.36l-1.707-1.707c-3.413-3.413-3.413-8.533,0-11.947l35.84-35.84
		c3.413-3.413,8.533-3.413,11.947,0l1.707,1.707c7.68,7.68,19.627,10.24,30.72,5.12c11.093-4.267,17.92-14.507,17.92-25.6v-2.56
		c0-5.12,3.413-8.533,8.533-8.533h51.2c5.12,0,8.533,3.413,8.533,8.533V9.24c0,11.093,6.827,21.333,17.92,25.6
		c11.093,5.12,23.893,2.56,31.573-5.12l1.707-1.707c3.413-3.413,8.533-3.413,11.947,0l35.84,35.84c3.413,3.413,3.413,8.533,0,11.947
		l-1.707,1.707c-7.68,7.68-10.24,19.627-5.12,30.72c4.267,11.093,14.507,17.92,25.6,17.92h2.56c5.12,0,8.533,3.413,8.533,8.533v51.2
		c0,5.12-3.413,8.533-8.533,8.533h-1.707c-11.093,0-21.333,6.827-25.6,17.92c-5.12,11.093-2.56,23.893,5.12,31.573l1.707,1.707
		c3.413,3.413,3.413,8.533,0,11.947l-35.84,35.84c-3.413,3.413-8.533,3.413-11.947,0l-1.707-1.707
		c-7.68-7.68-19.627-10.24-30.72-5.12c-11.093,4.267-17.92,14.507-17.92,25.6v2.56C195.267,319.853,191.853,323.267,186.733,323.267
		z M143.213,306.2H178.2c2.56-15.36,12.8-28.16,28.16-34.133c15.36-6.827,32.427-4.267,44.373,4.267l24.747-24.747
		c-9.387-12.8-11.093-29.013-5.12-44.373s19.627-25.6,34.987-28.16v-34.987c-15.36-2.56-28.16-12.8-34.133-28.16
		c-6.827-15.36-4.267-32.427,4.267-44.373l-24.747-24.747c-12.8,9.387-29.013,11.093-44.373,5.12S180.76,32.28,178.2,16.92h-34.987
		c-2.56,15.36-12.8,28.16-28.16,34.133c-15.36,6.827-32.427,4.267-44.373-4.267L45.933,70.68c9.387,12.8,11.093,29.013,5.12,44.373
		s-19.627,25.6-34.987,28.16V178.2c15.36,2.56,28.16,12.8,34.133,28.16c6.827,15.36,4.267,32.427-4.267,44.373L70.68,275.48
		c12.8-9.387,29.013-11.093,44.373-5.12C130.413,278.04,141.507,290.84,143.213,306.2z M161.133,246.467
		c-46.933,0-85.333-38.4-85.333-85.333S114.2,75.8,161.133,75.8s85.333,38.4,85.333,85.333S208.067,246.467,161.133,246.467z
		 M161.133,92.867c-37.547,0-68.267,30.72-68.267,68.267s30.72,68.267,68.267,68.267s68.267-30.72,68.267-68.267
		S198.68,92.867,161.133,92.867z"/>
</g>
<g>
</g>
<g>
</g>
<g>
</g>
<g>
</g>
<g>
</g>
<g>
</g>
<g>
</g>
<g>
</g>
<g>
</g>
<g>
</g>
<g>
</g>
<g>
</g>
<g>
</g>
<g>
</g>
<g>
</g>
</svg>
