<?xml version="1.0" encoding="UTF-8" standalone="no"?>
<!-- Created with Inkscape (http://www.inkscape.org/) -->
<svg height="32" width="32" xmlns="http://www.w3.org/2000/svg" xmlns:xlink="http://www.w3.org/1999/xlink"> 
  <defs>
    <linearGradient id="a" gradientTransform="translate(-.000006)" gradientUnits="userSpaceOnUse" x2="0" y1="545.79797" y2="517.79797">
      <stop offset="0" stop-color="#8f9ba1"/>
      <stop offset="1" stop-color="#cce8f4"/>
    </linearGradient>
    <linearGradient id="b" gradientUnits="userSpaceOnUse" x2="0" y1="30" y2="1.999974">
      <stop offset="0" stop-color="#2a2c2f"/>
      <stop offset="1" stop-color="#424649"/>
    </linearGradient>
    <linearGradient id="c" gradientUnits="userSpaceOnUse" x1="9.00001" x2="23" y1="9" y2="22.999973">
      <stop offset="0" stop-color="#292c2f"/>
      <stop offset="1" stop-opacity="0"/>
    </linearGradient>
  </defs>
  <g transform="translate(-384.57143 -515.798)">
    <rect fill="url(#a)" height="28" rx="13.999994" width="27.999989" x="386.57144" y="517.79797"/>
    <path d="m9.4003906 15-.099609 2 .9999998 1 10.970703 10.970703c3.4891-1.412467 6.267011-4.183045 7.6875-7.667969l-6.2529844-6.352734-.515-.35-2.790609.4-.082032 1.662109-1.612359-1.712109-.515-.35-2.790609.4-.082032 1.662109-1.612359-1.712109-.515-.35z" fill="url(#c)" fill-rule="evenodd" opacity=".2" transform="translate(384.57143 515.798)"/>
    <path d="m16 14c-1.108 0-2 .892-2 2s.892 2 2 2 2-.892 2-2-.892-2-2-2zm-5 0c-1.108 0-2 .892-2 2s.892 2 2 2 2-.892 2-2-.892-2-2-2zm10 0c-1.108 0-2 .892-2 2s.892 2 2 2 2-.892 2-2-.892-2-2-2z" fill="url(#b)" transform="translate(384.57143 515.798)"/>
  </g>
</svg>
